<svg width="16" height="16" viewBox="0 0 16 16" fill="none" xmlns="http://www.w3.org/2000/svg">
<g clip-path="url(#clip0_2390_3321)">
<rect x="-0.5" y="0.5" width="7" height="4" rx="1.5" transform="matrix(-1 0 0 1 15 0)" fill="white" stroke="#3E3A39"/>
<rect x="-0.5" y="0.5" width="6" height="4" rx="1.5" transform="matrix(-1 0 0 1 6 0)" fill="white" stroke="#3E3A39"/>
<rect x="-0.5" y="0.5" width="10" height="4" rx="1.5" transform="matrix(-1 0 0 1 10 6)" fill="white" stroke="#3E3A39"/>
<rect x="4" y="2" width="1" height="1" rx="0.5" fill="#3E3A39"/>
<rect x="13" y="2" width="1" height="1" rx="0.5" fill="#3E3A39"/>
<rect x="8" y="8" width="1" height="1" rx="0.5" fill="#3E3A39"/>
<rect x="12.5" y="10" width="1" height="6" rx="0.5" fill="black"/>
<rect x="10" y="12.5" width="6" height="1" rx="0.5" fill="black"/>
</g>
<defs>
<clipPath id="clip0_2390_3321">
<rect width="16" height="16" fill="white"/>
</clipPath>
</defs>
</svg>
