<svg width="16" height="16" viewBox="0 0 16 16" fill="none" xmlns="http://www.w3.org/2000/svg">
<path d="M10.626 3.03516C10.626 3.16771 10.5732 3.29491 10.4795 3.38867L9.59766 4.26953L9.85156 5.14746L10.7285 5.40137L11.6104 4.51953C11.742 4.38783 11.9366 4.34076 12.1143 4.39648C12.2917 4.45232 12.4232 4.602 12.4561 4.78516C12.6103 5.64669 12.3541 6.56813 11.6865 7.23535L11.6875 7.23633C11.2945 7.62979 10.7432 7.86175 10.2139 7.9707C9.79183 8.05755 9.34415 8.07289 8.93945 8.00879L6.02539 11.0596L6.01758 11.0684C5.44208 11.6437 4.50763 11.6443 3.93164 11.0684C3.35586 10.4925 3.35543 9.55714 3.93164 8.98145L3.94043 8.97363H3.94141L6.98926 6.05859C6.92561 5.65424 6.94234 5.20668 7.0293 4.78516C7.13843 4.25617 7.37069 3.70526 7.76367 3.3125C8.43059 2.64522 9.35312 2.39005 10.2139 2.54297C10.4524 2.58543 10.6259 2.79286 10.626 3.03516Z" fill="white" stroke="#201E1E" stroke-miterlimit="10" stroke-linejoin="round"/>
<path d="M12.1777 15.0159C11.894 15.2186 11.5 15.0158 11.5 14.6672V11.3328C11.5 10.9842 11.894 10.7814 12.1777 10.9841L14.5118 12.6513C14.7511 12.8222 14.7511 13.1778 14.5118 13.3487L12.1777 15.0159Z" fill="white" stroke="#201E1E" stroke-width="0.857143" stroke-linecap="round" stroke-linejoin="round"/>
</svg>
