<svg width="16" height="16" viewBox="0 0 16 16" fill="none" xmlns="http://www.w3.org/2000/svg">
<circle cx="3.5" cy="11.5" r="2.05" stroke="black" stroke-width="0.9"/>
<mask id="path-2-inside-1_1804_2257" fill="white">
<path fill-rule="evenodd" clip-rule="evenodd" d="M6.21233 4.93039L10.5298 12.4827C10.8912 13.3036 11.7119 13.8767 12.6664 13.8767C13.9551 13.8767 14.9998 12.8321 14.9998 11.5434C14.9998 11.0738 14.8611 10.6367 14.6225 10.2707L10.0663 2.30099L10.0648 2.30189C9.64553 1.53056 8.80099 1 8.00035 1C6.71167 1 5.66699 2 5.66699 3.33336C5.66699 4.0092 5.87197 4.54414 6.21233 4.93039Z"/>
</mask>
<path d="M10.5298 12.4827L11.3535 12.12L11.3346 12.0769L11.3112 12.036L10.5298 12.4827ZM6.21233 4.93039L6.99366 4.48371L6.94817 4.40414L6.88757 4.33537L6.21233 4.93039ZM14.6225 10.2707L13.8411 10.7173L13.8542 10.7402L13.8685 10.7622L14.6225 10.2707ZM10.0663 2.30099L10.8477 1.85432L10.401 1.07295L9.61964 1.51967L10.0663 2.30099ZM10.0648 2.30189L9.27403 2.73169L9.71317 3.53962L10.5115 3.08321L10.0648 2.30189ZM11.3112 12.036L6.99366 4.48371L5.431 5.37706L9.7485 12.9293L11.3112 12.036ZM9.70613 12.8453C10.2061 13.981 11.3423 14.7767 12.6664 14.7767V12.9767C12.0815 12.9767 11.5764 12.6262 11.3535 12.12L9.70613 12.8453ZM12.6664 14.7767C14.4522 14.7767 15.8998 13.3291 15.8998 11.5434H14.0998C14.0998 12.335 13.4581 12.9767 12.6664 12.9767V14.7767ZM15.8998 11.5434C15.8998 10.894 15.7074 10.2869 15.3764 9.77911L13.8685 10.7622C14.0148 10.9865 14.0998 11.2536 14.0998 11.5434H15.8998ZM9.28501 2.74767L13.8411 10.7173L15.4038 9.82398L10.8477 1.85432L9.28501 2.74767ZM10.5115 3.08321L10.513 3.08231L9.61964 1.51967L9.61807 1.52057L10.5115 3.08321ZM10.8555 1.87209C10.2962 0.843148 9.16589 0.1 8.00035 0.1V1.9C8.4361 1.9 8.99481 2.21797 9.27403 2.73169L10.8555 1.87209ZM8.00035 0.1C6.22595 0.1 4.76699 1.49168 4.76699 3.33336H6.56699C6.56699 2.50832 7.19739 1.9 8.00035 1.9V0.1ZM4.76699 3.33336C4.76699 4.19821 5.03316 4.95354 5.53709 5.52541L6.88757 4.33537C6.71078 4.13474 6.56699 3.8202 6.56699 3.33336H4.76699Z" fill="black" mask="url(#path-2-inside-1_1804_2257)"/>
<path d="M2 10L6 3M5.5 12L8 7.5" stroke="black" stroke-width="0.9" stroke-linecap="round"/>
</svg>
