<svg width="16" height="16" viewBox="0 0 16 16" fill="none" xmlns="http://www.w3.org/2000/svg">
<g clip-path="url(#clip0_1791_2204)">
<path d="M8 15C11.866 15 15 11.866 15 8C15 4.13401 11.866 1 8 1C4.13401 1 1 4.13401 1 8C1 11.866 4.13401 15 8 15Z" stroke="black" stroke-miterlimit="10" stroke-linejoin="round"/>
<path d="M7.2545 6.36646H8C11.866 6.36646 15 7.09796 15 7.99996C15 8.90196 11.866 9.63346 8 9.63346C4.134 9.63346 1 8.90196 1 7.99996C1 7.32996 2.729 6.75396 5.203 6.50246L5.532 6.47496" stroke="black" stroke-miterlimit="10" stroke-linejoin="round"/>
<path d="M9.4792 10.973C9.2182 13.3525 8.6542 15 8.0002 15C7.0982 15 6.3667 11.866 6.3667 8C6.3667 4.134 7.0982 1 8.0002 1C8.6837 1 9.2687 2.798 9.5127 5.3505" stroke="black" stroke-miterlimit="10" stroke-linejoin="round"/>
<path d="M9.625 7.29297C9.6305 7.52547 9.625 8.24197 9.625 8.48047" stroke="black" stroke-miterlimit="10" stroke-linejoin="round"/>
</g>
<defs>
<clipPath id="clip0_1791_2204">
<rect width="16" height="16" fill="white"/>
</clipPath>
</defs>
</svg>
