<svg width="16" height="16" viewBox="0 0 16 16" fill="none" xmlns="http://www.w3.org/2000/svg">
<circle cx="5.5" cy="5.5" r="5" fill="white" stroke="black"/>
<line x1="9.35355" y1="9.64645" x2="15.3536" y2="15.6464" stroke="#201E1E"/>
<path d="M3.32227 4.54688L2.63477 7H2.13867L3.04102 4.15625H3.34961L3.32227 4.54688ZM3.87109 7L3.18164 4.54688L3.14844 4.15625H3.46289L4.36914 7H3.87109ZM3.88281 5.94336V6.3418H2.55859V5.94336H3.88281ZM5.60742 5.71875H5.02734L5.02539 5.35547H5.53906C5.61849 5.35547 5.6862 5.33984 5.74219 5.30859C5.79818 5.27734 5.84049 5.23177 5.86914 5.17188C5.89909 5.11198 5.91406 5.03971 5.91406 4.95508C5.91406 4.86133 5.90104 4.78516 5.875 4.72656C5.84896 4.66667 5.80794 4.62305 5.75195 4.5957C5.69727 4.56836 5.62695 4.55469 5.54102 4.55469H5.16797V7H4.69336V4.15625H5.54102C5.67383 4.15625 5.79232 4.17188 5.89648 4.20312C6.00195 4.23307 6.09115 4.2793 6.16406 4.3418C6.23698 4.4043 6.29232 4.48438 6.33008 4.58203C6.36914 4.67839 6.38867 4.79297 6.38867 4.92578C6.38867 5.04167 6.36393 5.14844 6.31445 5.24609C6.26497 5.34245 6.19141 5.42188 6.09375 5.48438C5.9974 5.54557 5.8776 5.58203 5.73438 5.59375L5.60742 5.71875ZM5.58984 7H4.87109L5.08984 6.60352H5.58984C5.67448 6.60352 5.74414 6.58529 5.79883 6.54883C5.85352 6.51237 5.89453 6.46159 5.92188 6.39648C5.94922 6.33138 5.96289 6.25521 5.96289 6.16797C5.96289 6.07682 5.95117 5.9974 5.92773 5.92969C5.9043 5.86198 5.86654 5.8099 5.81445 5.77344C5.76237 5.73698 5.69336 5.71875 5.60742 5.71875H5.12891L5.13281 5.35547H5.74414L5.85352 5.49414C5.99023 5.49674 6.10156 5.5306 6.1875 5.5957C6.27344 5.65951 6.33659 5.74219 6.37695 5.84375C6.41732 5.94531 6.4375 6.05404 6.4375 6.16992C6.4375 6.35091 6.40365 6.50326 6.33594 6.62695C6.26823 6.74935 6.17122 6.84245 6.04492 6.90625C5.91992 6.96875 5.76823 7 5.58984 7ZM8.29883 6.07227H8.77148C8.76237 6.27799 8.7207 6.45312 8.64648 6.59766C8.57227 6.74089 8.46549 6.85026 8.32617 6.92578C8.18815 7.0013 8.01953 7.03906 7.82031 7.03906C7.66927 7.03906 7.53385 7.01172 7.41406 6.95703C7.29557 6.90234 7.19466 6.82357 7.11133 6.7207C7.02799 6.61654 6.96419 6.48958 6.91992 6.33984C6.87695 6.1901 6.85547 6.02018 6.85547 5.83008V5.32617C6.85547 5.13607 6.8776 4.96615 6.92188 4.81641C6.96745 4.66667 7.03255 4.53971 7.11719 4.43555C7.20182 4.33138 7.30469 4.2526 7.42578 4.19922C7.54818 4.14453 7.6862 4.11719 7.83984 4.11719C8.03646 4.11719 8.20182 4.15495 8.33594 4.23047C8.47005 4.30599 8.57357 4.41667 8.64648 4.5625C8.7194 4.70833 8.76172 4.88607 8.77344 5.0957H8.30078C8.29427 4.95378 8.27474 4.84049 8.24219 4.75586C8.21094 4.66992 8.16276 4.60807 8.09766 4.57031C8.03385 4.53255 7.94792 4.51367 7.83984 4.51367C7.75 4.51367 7.67253 4.5306 7.60742 4.56445C7.54362 4.59831 7.49089 4.64909 7.44922 4.7168C7.40885 4.7832 7.37826 4.86719 7.35742 4.96875C7.33789 5.06901 7.32812 5.18685 7.32812 5.32227V5.83008C7.32812 5.96029 7.33659 6.07552 7.35352 6.17578C7.37044 6.27604 7.39779 6.36133 7.43555 6.43164C7.47331 6.50065 7.52344 6.55339 7.58594 6.58984C7.64844 6.625 7.72656 6.64258 7.82031 6.64258C7.93229 6.64258 8.02148 6.625 8.08789 6.58984C8.1556 6.55469 8.20573 6.49544 8.23828 6.41211C8.27083 6.32878 8.29102 6.21549 8.29883 6.07227Z" fill="#201E1E"/>
</svg>
