<svg width="16" height="16" viewBox="0 0 16 16" fill="none" xmlns="http://www.w3.org/2000/svg">
<path d="M5.5 3H6V8H1V1H2.5H4V1.5V2H4.5H5V2.5V3H5.5Z" fill="white" stroke="black"/>
<path d="M4.5 1.5H3.5V3.5H4.5V1.5Z" fill="black"/>
<path d="M5.5 1.5H4.5V3.5H5.5V1.5Z" fill="black"/>
<path d="M11.5 9L14 6H12V4H7V5H11.0002V6H9L11.5 9Z" fill="#201E1E"/>
<path d="M9 11.5H14" stroke="black"/>
<path d="M9 13.5H14" stroke="black"/>
<line x1="14" y1="15.5" x2="9" y2="15.5" stroke="black"/>
<path d="M11.5 9L14 6H12V4H7V5H11.0002V6H9L11.5 9Z" fill="#201E1E"/>
<path d="M9 11.5H14" stroke="black"/>
<path d="M9 13.5H14" stroke="black"/>
<line x1="14" y1="15.5" x2="9" y2="15.5" stroke="black"/>
</svg>
