<svg width="16" height="16" viewBox="0 0 16 16" fill="none" xmlns="http://www.w3.org/2000/svg">
<g clip-path="url(#clip0_2390_3527)">
<g clip-path="url(#clip1_2390_3527)">
<rect width="10" height="10" rx="1.25" fill="white"/>
<g clip-path="url(#clip2_2390_3527)">
<mask id="mask0_2390_3527" style="mask-type:luminance" maskUnits="userSpaceOnUse" x="0" y="0" width="10" height="10">
<path d="M9.375 0.625H0.625V9.375H9.375V0.625Z" fill="white"/>
</mask>
<g mask="url(#mask0_2390_3527)">
<path d="M1.5 4.74982L4.79983 1.44999C5.25544 0.994373 5.99415 0.994373 6.44973 1.44999C6.90536 1.90559 6.90536 2.64429 6.44973 3.0999L3.95769 5.59196" stroke="black" stroke-width="0.583333" stroke-linecap="round"/>
<path d="M3.99206 5.55758L6.44973 3.09989C6.90536 2.64428 7.64406 2.64428 8.09969 3.09989L8.11685 3.11707C8.57248 3.57268 8.57248 4.31138 8.11685 4.76699L5.13246 7.7514C4.98058 7.90326 4.98058 8.14948 5.13246 8.30134L5.74526 8.91418" stroke="black" stroke-width="0.583333" stroke-linecap="round"/>
<path d="M5.6248 2.27496L3.18428 4.71546C2.72867 5.17108 2.72867 5.90976 3.18428 6.36539C3.6399 6.82097 4.37859 6.82097 4.8342 6.36539L7.27471 3.92488" stroke="black" stroke-width="0.583333" stroke-linecap="round"/>
</g>
</g>
</g>
<path d="M13.9697 9.02637C13.9697 9.12573 13.9306 9.22168 13.8604 9.29199L13.1982 9.95215L13.3887 10.6104L14.0459 10.8008L14.708 10.1396L14.79 10.0781C14.8787 10.0284 14.9852 10.0157 15.085 10.0469C15.2183 10.0887 15.3182 10.2014 15.3428 10.3389C15.4512 10.9449 15.2891 11.5913 14.8555 12.082L14.7656 12.1777C14.4709 12.4728 14.0571 12.6468 13.6602 12.7285C13.3436 12.7936 13.0076 12.805 12.7041 12.7568L10.5195 15.0449L10.5137 15.0508C10.0821 15.4824 9.38125 15.4828 8.94922 15.0508C8.51738 14.6189 8.51706 13.9181 8.94922 13.4863L8.95508 13.4805L11.2422 11.293C11.1946 10.99 11.2063 10.6547 11.2715 10.3389C11.3533 9.94211 11.5275 9.52896 11.8223 9.23438C12.3224 8.73376 13.0145 8.54256 13.6602 8.65723C13.8391 8.68902 13.9697 8.8446 13.9697 9.02637Z" fill="white" stroke="#201E1E" stroke-width="0.75" stroke-miterlimit="10" stroke-linejoin="round"/>
</g>
<defs>
<clipPath id="clip0_2390_3527">
<rect width="16" height="16" fill="white"/>
</clipPath>
<clipPath id="clip1_2390_3527">
<rect width="10" height="10" rx="1.25" fill="white"/>
</clipPath>
<clipPath id="clip2_2390_3527">
<rect width="8.75" height="8.75" fill="white" transform="translate(0.625 0.625)"/>
</clipPath>
</defs>
</svg>
