<svg width="16" height="16" viewBox="0 0 16 16" fill="none" xmlns="http://www.w3.org/2000/svg">
<g clip-path="url(#clip0_2390_3394)">
<path d="M10 6L12.5 4V5.5H15.5C15.7761 5.5 16 5.72386 16 6C16 6.27614 15.7761 6.5 15.5 6.5H12.5V8L10 6Z" fill="black"/>
<path d="M3.61816 0.5H8.38184C8.75353 0.5 8.99533 0.891182 8.8291 1.22363L7.7666 3.34961C7.56418 3.75446 7.55489 4.22954 7.74219 4.6416L10.459 10.6182C11.3916 12.6704 10.1694 15.056 7.95898 15.498L7.94922 15.5H4.05078L4.04102 15.498C1.83057 15.056 0.608353 12.6704 1.54102 10.6182L4.25781 4.6416C4.44511 4.22954 4.43582 3.75446 4.2334 3.34961L3.1709 1.22363C3.00467 0.891183 3.24647 0.5 3.61816 0.5Z" fill="white" stroke="#201E1E"/>
<path d="M4 4H8" stroke="#201E1E"/>
<path d="M6.33105 8.05762V8.92188H5.87402V8.05762H6.33105ZM6.27539 12.8418V13.6299H5.81836V12.8418H6.27539ZM6.59766 11.8809C6.59766 11.7695 6.57715 11.6748 6.53613 11.5967C6.49707 11.5186 6.43262 11.4492 6.34277 11.3887C6.25488 11.3281 6.13574 11.2695 5.98535 11.2129C5.73145 11.1152 5.50781 11.0117 5.31445 10.9023C5.12305 10.791 4.97363 10.6533 4.86621 10.4893C4.75879 10.3232 4.70508 10.1133 4.70508 9.85938C4.70508 9.61719 4.7627 9.40723 4.87793 9.22949C4.99316 9.05176 5.15234 8.91504 5.35547 8.81934C5.56055 8.72168 5.79883 8.67285 6.07031 8.67285C6.27734 8.67285 6.46484 8.7041 6.63281 8.7666C6.80078 8.82715 6.94531 8.91699 7.06641 9.03613C7.1875 9.15332 7.28027 9.29688 7.34473 9.4668C7.40918 9.63672 7.44141 9.83105 7.44141 10.0498H6.60059C6.60059 9.93262 6.58789 9.8291 6.5625 9.73926C6.53711 9.64941 6.5 9.57422 6.45117 9.51367C6.4043 9.45312 6.34766 9.4082 6.28125 9.37891C6.21484 9.34766 6.1416 9.33203 6.06152 9.33203C5.94238 9.33203 5.84473 9.35547 5.76855 9.40234C5.69238 9.44922 5.63672 9.5127 5.60156 9.59277C5.56836 9.6709 5.55176 9.76074 5.55176 9.8623C5.55176 9.96191 5.56934 10.0488 5.60449 10.123C5.6416 10.1973 5.70508 10.2656 5.79492 10.3281C5.88477 10.3887 6.00781 10.4512 6.16406 10.5156C6.41797 10.6133 6.64062 10.7188 6.83203 10.832C7.02344 10.9453 7.17285 11.084 7.28027 11.248C7.3877 11.4121 7.44141 11.6211 7.44141 11.875C7.44141 12.127 7.38281 12.3418 7.26562 12.5195C7.14844 12.6953 6.98438 12.8301 6.77344 12.9238C6.5625 13.0156 6.31836 13.0615 6.04102 13.0615C5.86133 13.0615 5.68262 13.0381 5.50488 12.9912C5.32715 12.9424 5.16602 12.8643 5.02148 12.7568C4.87695 12.6494 4.76172 12.5068 4.67578 12.3291C4.58984 12.1494 4.54688 11.9287 4.54688 11.667H5.39062C5.39062 11.8096 5.40918 11.9287 5.44629 12.0244C5.4834 12.1182 5.53223 12.1934 5.59277 12.25C5.65527 12.3047 5.72559 12.3438 5.80371 12.3672C5.88184 12.3906 5.96094 12.4023 6.04102 12.4023C6.16602 12.4023 6.26855 12.3799 6.34863 12.335C6.43066 12.29 6.49219 12.2285 6.5332 12.1504C6.57617 12.0703 6.59766 11.9805 6.59766 11.8809Z" fill="#201E1E"/>
<path d="M4.75 0L5.25 2" stroke="#201E1E" stroke-linecap="round"/>
<path d="M7.25 0L6.75 2" stroke="#201E1E" stroke-linecap="round"/>
</g>
<defs>
<clipPath id="clip0_2390_3394">
<rect width="16" height="16" fill="white"/>
</clipPath>
</defs>
</svg>
